<svg width="128" height="128" viewBox="0 0 128 128" fill="none" xmlns="http://www.w3.org/2000/svg">
  <rect width="128" height="128" rx="64" fill="#4F46E5"/>
  <path d="M64 32C45.2 32 30 47.2 30 66C30 84.8 45.2 100 64 100C82.8 100 98 84.8 98 66C98 47.2 82.8 32 64 32ZM64 92C48.5 92 36 79.5 36 64C36 48.5 48.5 36 64 36C79.5 36 92 48.5 92 64C92 79.5 79.5 92 64 92Z" fill="white"/>
  <path d="M64 44C51.85 44 42 53.85 42 66C42 78.15 51.85 88 64 88C76.15 88 86 78.15 86 66C86 53.85 76.15 44 64 44ZM64 80C55.16 80 48 72.84 48 64C48 55.16 55.16 48 64 48C72.84 48 80 55.16 80 64C80 72.84 72.84 80 64 80Z" fill="white"/>
  <path d="M64 52C58.48 52 54 56.48 54 62C54 67.52 58.48 72 64 72C69.52 72 74 67.52 74 62C74 56.48 69.52 52 64 52Z" fill="white"/>
</svg> 